<svg width="1466" height="257" viewBox="0 0 1466 257" fill="none" xmlns="http://www.w3.org/2000/svg">
<g clip-path="url(#clip0_1481_53)">
<mask id="mask0_1481_53" style="mask-type:luminance" maskUnits="userSpaceOnUse" x="0" y="0" width="1466" height="255">
<path d="M1465.31 0.512695H0.688171V254.749H1465.31V0.512695Z" fill="white"/>
</mask>
<g mask="url(#mask0_1481_53)">
<path d="M175.256 245.114C176.109 244.76 176.962 244.395 177.812 244.02C241.69 215.88 270.806 140.95 242.843 76.6629C214.881 12.3751 140.43 -16.9271 76.5527 11.2143C45.4767 24.9054 22.6277 49.6701 10.5761 78.896H58.6C67.129 66.7125 78.9693 56.6456 93.5243 50.233C135.991 31.5248 185.485 51.0049 204.074 93.7431C220.407 131.294 207.446 174.306 175.256 196.884V245.114Z" fill="#E50028"/>
<path d="M143.668 253.675V210.463C105.831 218.067 66.5236 198.472 50.4163 161.398C43.2092 144.81 41.7045 127.157 45.0384 110.667H2.12982C-0.843226 132.981 2.02428 156.37 11.6392 178.5C34.7 231.58 89.3767 260.84 143.668 253.675Z" fill="#03BDE4"/>
<path d="M284.015 61.4092V74.0638H349.365H414.712V139.869V205.675H427.278H439.846V136.832C439.846 99.3736 437.331 63.9402 434.819 58.3719C429.792 49.7665 423.257 48.7543 356.904 48.7543H284.015V61.4092Z" fill="#19191A"/>
<path d="M464.985 61.4092V74.0638H522.793H580.599V127.214V180.871L531.841 179.352C486.6 177.834 482.577 176.822 482.577 167.711C482.577 158.093 493.136 153.536 541.894 142.906C551.948 140.376 555.465 136.832 555.465 127.214C555.465 112.535 553.456 112.029 510.225 122.659C464.482 133.289 454.931 140.376 454.931 165.179C454.931 200.106 465.488 205.675 530.835 205.675C561.498 205.675 590.652 203.143 596.182 200.613C604.729 195.551 605.735 189.477 605.735 128.228C605.735 82.6692 603.723 58.8781 599.703 54.8286C595.679 50.779 572.557 48.7543 529.329 48.7543H464.985V61.4092Z" fill="#19191A"/>
<path d="M636.899 54.8286C632.878 58.8781 630.866 83.6817 630.866 133.289V205.675H643.434H656V139.869V74.0638H706.77C756.031 74.0638 757.037 74.0638 755.53 85.2002C754.022 95.3241 748.995 97.8551 717.829 103.929C682.639 111.016 681.133 112.029 681.133 126.202C681.133 137.339 683.145 139.869 690.181 137.844C694.707 136.326 713.305 132.782 730.9 129.24C769.605 121.646 781.667 111.522 781.667 85.2002C781.667 52.8038 773.122 48.7543 703.252 48.7543C663.038 48.7543 640.919 50.779 636.899 54.8286Z" fill="#19191A"/>
<path d="M807.301 61.9152C794.23 78.6196 793.727 96.3366 805.792 108.485C810.816 113.547 840.476 126.708 871.642 137.339C902.305 147.969 928.947 158.598 930.453 161.13C931.962 163.66 930.453 168.723 927.438 172.773C922.412 178.847 907.332 180.364 859.076 180.364H796.742V193.019V205.675H864.603C930.453 205.675 933.471 205.168 945.031 193.019C960.614 177.834 961.619 154.043 947.545 140.881C942.519 135.819 913.867 124.177 884.71 114.56C797.747 86.2127 799.256 74.0638 890.24 74.0638H952.572V61.4092V48.7543H885.213C818.357 48.7543 817.351 48.7543 807.301 61.9152Z" fill="#19191A"/>
<path d="M978.72 54.8286C974.699 58.8781 972.687 82.6692 972.687 128.228C972.687 189.477 973.693 195.551 982.238 200.613C987.767 203.143 1019.44 205.675 1052.61 205.675H1113.44V193.019V180.364H1055.63H997.821V127.214V74.0638H1047.59C1085.79 74.0638 1097.85 75.5826 1099.86 81.1506C1104.39 92.287 1093.83 98.3614 1056.63 104.942C1024.46 111.016 1022.95 112.028 1022.95 125.696C1022.95 141.388 1018.93 140.881 1068.2 129.745C1077.75 127.72 1092.32 124.177 1099.86 122.659C1115.95 119.115 1130.53 91.2745 1125 75.5826C1116.45 50.779 1109.92 48.7543 1045.58 48.7543C1004.86 48.7543 982.74 50.779 978.72 54.8286Z" fill="#19191A"/>
<path d="M1138.57 116.084C1138.57 209.224 1135.05 205.68 1224.53 205.68H1294.4V193.025V180.37H1229.05H1163.7V114.565V48.7596H1151.13H1138.57V116.084Z" fill="#19191A"/>
<path d="M1309.48 118.615C1309.48 209.73 1305.46 205.68 1396.44 205.68H1465.31V193.025V180.37H1399.96H1334.61V114.565V48.7596H1322.05H1309.48V118.615Z" fill="#19191A"/>
</g>
</g>
<defs>
<clipPath id="clip0_1481_53">
<rect width="1464.62" height="257" fill="white" transform="translate(0.688171)"/>
</clipPath>
</defs>
</svg>
