<svg width="241" height="67" viewBox="0 0 241 67" fill="none" xmlns="http://www.w3.org/2000/svg">
<g clip-path="url(#clip0_60_537)">
<path d="M193.062 39.3115C193.712 41.1479 194.681 42.8511 195.923 44.3403C195.95 44.3903 195.982 44.4369 196.02 44.479L196.884 45.4091L197.807 46.2831C197.847 46.3249 197.893 46.3591 197.945 46.3842C199.414 47.6575 201.099 48.6484 202.918 49.3057C204.239 49.7904 205.614 50.1056 207.011 50.2443C207.054 50.2199 207.074 50.2443 207.114 50.2443C207.165 50.2601 207.217 50.2662 207.27 50.2625H207.563C208.202 50.3051 208.842 50.3051 209.482 50.2625H209.781C209.833 50.266 209.884 50.2598 209.934 50.2443C209.972 50.2443 209.997 50.2199 210.033 50.2443C219.867 49.6454 228.366 43.0694 231.54 33.6035C232.423 31.0346 232.869 28.3323 232.859 25.6118C232.838 12.4817 222.7 1.6622 209.781 0.990234C210.311 1.00971 210.82 1.04867 211.34 1.08519C212.849 1.22274 214.346 1.45038 215.823 1.80097C216.057 1.83915 216.288 1.89905 216.512 1.97992C216.79 2.04078 217.08 2.11869 217.351 2.19903C218.046 2.40051 218.733 2.62626 219.412 2.87587C220.132 3.13515 220.852 3.42853 221.583 3.74747L222.875 4.36343C222.893 4.38778 222.917 4.38778 222.935 4.4036C223.345 4.59838 223.736 4.82358 224.146 5.06096C224.52 5.25938 224.865 5.4785 225.249 5.70249C225.351 5.75605 225.447 5.81935 225.537 5.89239C225.93 6.13585 226.34 6.41218 226.736 6.68852H226.758C227.561 7.26553 228.343 7.86445 229.105 8.50233L229.189 8.57171L230.364 9.63078C230.672 9.9132 230.992 10.2029 231.284 10.5073C231.575 10.8116 231.869 11.1232 232.145 11.4422C232.412 11.7306 232.667 12.0294 232.911 12.3381C233.009 12.4306 233.101 12.5292 233.183 12.6351L233.26 12.7118C233.885 13.4842 234.48 14.2814 235.043 15.1014V15.1258C235.319 15.5171 235.579 15.9191 235.824 16.3309C235.898 16.4259 235.966 16.5257 236.024 16.6304C236.237 17.0114 236.451 17.3608 236.648 17.7406C236.888 18.1593 237.104 18.5598 237.299 18.9762C237.318 18.9944 237.318 19.0188 237.335 19.037L237.943 20.3517C237.95 20.3883 237.965 20.4199 237.985 20.4491L238.004 20.4674C238.276 21.1442 238.552 21.8381 238.808 22.5539C239.058 23.2403 239.28 23.9368 239.474 24.6416C239.554 24.9236 239.626 25.2077 239.69 25.4937C239.769 25.7372 239.81 25.9685 239.865 26.1827C240.202 27.6828 240.438 29.2042 240.572 30.7367L240.67 32.3277C240.705 33.1758 240.705 34.0251 240.67 34.8732C240.673 34.947 240.665 35.021 240.646 35.0923C239.874 48.1152 229.249 58.2774 216.395 58.2871C213.717 58.297 211.057 57.8488 208.526 56.9615C203.964 55.3848 199.968 52.4646 197.047 48.5734C194.127 44.6822 192.414 39.9962 192.127 35.113C192.258 36.5479 192.572 37.9596 193.06 39.3127L193.062 39.3115Z" fill="url(#paint0_linear_60_537)"/>
<path d="M185.507 33.6098C188.691 24.1597 197.175 17.5898 206.994 16.9727C205.596 17.109 204.221 17.4231 202.902 17.91C201.083 18.5715 199.397 19.5613 197.925 20.8316C197.876 20.8609 197.831 20.8965 197.791 20.9375C197.479 21.2114 197.167 21.5145 196.87 21.8018C196.572 22.0891 196.282 22.4287 196.003 22.7452C195.969 22.7781 195.931 22.8401 195.883 22.8669C195.604 23.2005 195.331 23.5608 195.077 23.9382C194.212 25.1606 193.521 26.5007 193.024 27.9188C192.547 29.2578 192.238 30.6525 192.104 32.0699C192.123 32.0918 192.104 32.1307 192.104 32.1673C192.087 32.2196 192.08 32.2732 192.082 32.328C192.063 32.7479 192.039 33.1801 192.039 33.6013C192.039 34.0225 192.063 34.4534 192.082 34.8734C192.08 34.9278 192.087 34.9822 192.104 35.0341C192.104 35.0487 192.123 35.0706 192.104 35.1107C192.329 39.1852 193.562 43.1365 195.688 46.5998C198.405 51.0566 202.449 54.5197 207.234 56.4873C212.019 58.4549 217.298 58.8247 222.304 57.5433C227.31 56.2618 231.785 53.3956 235.079 49.3599C238.373 45.3243 240.315 40.3288 240.625 35.0974C240.625 35.5478 240.585 36.0103 240.548 36.4608C240.414 37.9873 240.179 39.5016 239.841 40.9953C239.799 41.2383 239.74 41.4779 239.664 41.7123C239.607 41.9923 239.528 42.2893 239.452 42.5705C239.312 43.0632 239.161 43.5526 239 44.0386C238.372 45.9157 237.579 47.7319 236.63 49.4642C236.53 49.6407 236.434 49.8294 236.318 49.9998C236.174 50.2624 236.02 50.5202 235.859 50.7728C235.607 51.211 235.313 51.6736 235.02 52.1119C234.452 52.9214 233.864 53.7187 233.239 54.4978L233.158 54.5733C232.83 54.9701 232.477 55.3645 232.121 55.7663C231.846 56.0887 231.559 56.3998 231.259 56.6987C230.959 56.9929 230.651 57.2791 230.337 57.5569L229.455 58.3287C229.335 58.4602 229.206 58.5795 229.065 58.6866C228.691 59.0068 228.322 59.3038 227.929 59.6045C227.148 60.2059 226.344 60.7757 225.518 61.3124C225.489 61.3112 225.461 61.3246 225.444 61.3489C225.368 61.3889 225.296 61.4354 225.228 61.4877C224.006 62.2424 222.737 62.9142 221.428 63.4987C220.979 63.6983 220.504 63.8967 220.054 64.0769C218.208 64.7769 216.31 65.3222 214.377 65.7081C213.395 65.8867 212.415 66.0189 211.437 66.105C210.945 66.1488 210.457 66.1829 209.965 66.2024C208.987 66.263 208.006 66.263 207.027 66.2024C206.929 66.2048 206.831 66.1983 206.734 66.1829C206.393 66.179 206.052 66.1529 205.714 66.105C202.072 65.6813 198.573 64.4255 195.478 62.4321C192.383 60.4386 189.774 57.7592 187.845 54.5952C185.436 50.7 184.164 46.1911 184.177 41.5918C184.17 38.8698 184.621 36.1662 185.504 33.5964L185.507 33.6098Z" fill="url(#paint1_linear_60_537)"/>
<path d="M176.485 30.6264C176.565 29.6257 176.694 28.63 176.874 27.6439L177.542 24.7418L178.013 23.1593L178.485 21.8653L179.504 19.4647L180.379 17.7325L181.029 16.6199L181.989 15.086L183.77 12.7025L183.85 12.6173L184.884 11.4304L185.745 10.4979L186.668 9.61904L187.551 8.84848C187.642 8.74802 187.741 8.65482 187.846 8.56971C187.874 8.54612 187.902 8.52092 187.927 8.49424L190.278 6.70234V6.68043L191.585 5.8283L192.355 5.36816C192.526 5.25251 192.715 5.1466 192.885 5.05165C194.586 4.07338 196.377 3.26689 198.232 2.64379L199.679 2.18729L200.525 1.96818C200.754 1.88882 200.988 1.83056 201.227 1.7941C202.698 1.4496 204.191 1.20979 205.695 1.07588L207.264 0.972407C208.099 0.911541 208.938 0.911541 209.773 0.972407C213.694 1.17088 217.509 2.33286 220.89 4.35849C224.271 6.38412 227.117 9.21281 229.184 12.6015C231.589 16.4957 232.861 21.0011 232.852 25.5976C232.86 28.3183 232.414 31.0208 231.533 33.5893C228.352 43.0528 219.855 49.6263 210.022 50.2301C211.42 50.0925 212.796 49.7773 214.116 49.2928C215.937 48.6354 217.623 47.6445 219.093 46.3712C219.141 46.3408 219.187 46.3067 219.231 46.2702C219.545 45.9926 219.852 45.6956 220.148 45.3998C220.445 45.104 220.736 44.7911 221.012 44.4624C221.048 44.4186 221.091 44.3651 221.132 44.3237C221.411 43.9828 221.683 43.6298 221.938 43.2475C222.792 42.0308 223.478 40.7008 223.976 39.2949C224.466 37.9437 224.78 36.5316 224.915 35.0988C224.891 35.0586 224.915 35.0379 224.915 35.0172C224.93 34.9671 224.936 34.9149 224.935 34.8626V34.5644C224.977 33.9159 224.977 33.2652 224.935 32.6167V32.3197C224.937 32.265 224.931 32.2104 224.917 32.1578C224.917 32.1188 224.893 32.0762 224.917 32.0579C224.303 22.0905 217.829 13.4816 208.518 10.2557C205.986 9.36335 203.323 8.91266 200.643 8.92273C187.915 8.93004 177.349 18.8999 176.411 31.784C176.426 31.3774 176.447 31.0049 176.489 30.6154L176.485 30.6264Z" fill="url(#paint2_linear_60_537)"/>
<path d="M176.393 31.7848C177.34 18.9056 187.905 8.94059 200.632 8.93085C203.312 8.92009 205.975 9.36868 208.508 10.2577C213.82 12.0974 218.339 15.7516 221.292 20.5964C223.422 24.0536 224.65 27.9953 224.898 32.0636C224.766 30.6442 224.458 29.2467 223.975 27.9077C223.325 26.0622 222.35 24.3524 221.097 22.8619C221.068 22.8108 221.033 22.7645 220.992 22.7219C220.716 22.403 220.426 22.084 220.134 21.7846C219.841 21.4851 219.526 21.1881 219.21 20.9105C219.174 20.874 219.136 20.8496 219.096 20.8095C217.612 19.5471 215.918 18.5574 214.099 17.8879C212.777 17.4058 211.401 17.0906 210.005 16.9506C209.969 16.9749 209.945 16.9506 209.905 16.9506C209.855 16.9418 209.804 16.9377 209.753 16.9384C209.34 16.914 208.906 16.9019 208.5 16.9019C208.081 16.903 207.661 16.9155 207.243 16.9396C207.19 16.9389 207.136 16.943 207.083 16.9518C207.045 16.9518 207.027 16.9761 206.985 16.9518C194.42 17.7516 184.535 28.1572 184.204 40.933C183.873 53.7088 193.207 64.627 205.714 66.0951C205.661 66.1072 205.606 66.1072 205.554 66.0951C204.572 66.0089 203.594 65.8757 202.624 65.6958C200.686 65.3166 198.783 64.773 196.934 64.0707L195.565 63.49C195.522 63.4656 195.505 63.451 195.487 63.451C194.209 62.8719 192.968 62.2141 191.769 61.4814C191.697 61.4327 191.625 61.3865 191.549 61.3451C191.533 61.3158 191.503 61.2988 191.471 61.3012C190.2 60.4845 188.983 59.5838 187.829 58.6049C187.433 58.264 187.044 57.9013 186.653 57.5458C186.341 57.2707 186.025 56.9688 185.73 56.6937C185.435 56.4186 185.169 56.0777 184.869 55.7612C184.603 55.4743 184.349 55.1758 184.108 54.8665C184.009 54.7752 183.917 54.6741 183.833 54.567L183.751 54.494C183.123 53.7149 182.536 52.92 181.97 52.0983C181.637 51.5895 181.303 51.0916 181.011 50.5718C180.778 50.2066 180.558 49.8414 180.363 49.4579C180.056 48.8809 179.752 48.3075 179.482 47.7269C179.112 46.9407 178.772 46.1408 178.461 45.3288L177.994 44.0323C177.82 43.5155 177.662 42.993 177.522 42.4656C177.266 41.5039 177.027 40.5374 176.854 39.5647C176.679 38.569 176.54 37.5732 176.463 36.5799C176.425 36.0808 176.383 35.5878 176.367 35.0923C176.303 34.0978 176.303 33.0983 176.367 32.1038C176.355 31.9967 176.363 31.8883 176.389 31.7848H176.393Z" fill="url(#paint3_linear_60_537)"/>
<path d="M155.193 46.3984C153.205 46.399 151.248 45.9022 149.495 44.9521C147.742 44.0019 146.247 42.6276 145.142 40.9509C143.812 38.9335 143.103 36.561 143.103 34.1339C143.104 30.8806 144.378 27.7609 146.645 25.4608C148.911 23.1608 151.985 21.8685 155.19 21.8682C158.395 21.8691 161.469 23.162 163.735 25.4626C166.001 27.7631 167.274 30.883 167.275 34.1363C167.274 37.3896 166.001 40.5095 163.735 42.8101C161.469 45.1106 158.395 46.4035 155.19 46.4045L155.193 46.3984ZM155.193 29.0796C154.406 29.0751 153.631 29.2635 152.932 29.6286C152.17 30.0242 151.52 30.6109 151.044 31.3328C150.718 31.825 150.483 32.3738 150.351 32.9519C150.259 33.3378 150.212 33.731 150.213 34.129C150.213 34.5966 150.276 35.062 150.402 35.5119C150.541 36.0171 150.758 36.4955 151.046 36.9313C151.519 37.6488 152.164 38.2323 152.92 38.627C153.623 38.9959 154.402 39.187 155.193 39.1833C156.512 39.1833 157.778 38.6511 158.712 37.7037C159.645 36.7563 160.169 35.4713 160.169 34.1315C160.169 32.7916 159.645 31.5067 158.712 30.5592C157.778 29.6118 156.512 29.0796 155.193 29.0796Z" fill="#CACACA"/>
<path d="M137.897 39.1279H155.219V46.3296H137.897V39.1279Z" fill="#CACACA"/>
<path d="M138.334 46.3182C136.834 46.3182 135.35 46.0184 133.964 45.4359C132.579 44.8535 131.321 43.9997 130.26 42.9235C129.2 41.8472 128.359 40.5695 127.786 39.1633C127.212 37.7572 126.917 36.2501 126.917 34.7281V13.5467C126.917 13.5284 126.924 13.5102 126.936 13.498C126.948 13.4858 126.966 13.4785 126.984 13.4785H133.946C133.964 13.4785 133.982 13.4858 133.994 13.498C134.006 13.5102 134.013 13.5284 134.013 13.5467V34.7281C134.013 37.1505 135.944 39.1129 138.33 39.1165C138.366 39.1177 138.396 39.147 138.396 39.1847V46.2452C138.397 46.2634 138.391 46.2817 138.379 46.2939C138.367 46.306 138.351 46.3158 138.334 46.3182Z" fill="#CACACA"/>
<path d="M122.66 46.3489H111.577V39.1472H122.66C123.788 39.144 124.869 38.6877 125.667 37.8779C126.465 37.0682 126.914 35.9709 126.918 34.8257V8.65332H134.011V34.8403C134.006 37.8945 132.809 40.8221 130.682 42.9818C128.554 45.1415 125.67 46.3571 122.661 46.3623L122.66 46.3489ZM111.577 8.65575H118.754V33.5962H111.577V8.65575ZM95.1557 46.5242H82.8552C76.5892 46.5169 71.5104 41.3627 71.5044 35.0035V31.7897H78.5991V35.0035C78.6027 37.3894 80.5179 39.3201 82.8564 39.3225H95.1557C97.5062 39.3201 99.4094 37.3748 99.413 35.0035V29.2261H106.508V35.0035C106.501 41.364 101.423 46.5193 95.1557 46.5242Z" fill="#CACACA"/>
<path d="M67.2582 46.485H53.9467C50.9337 46.4808 48.0454 45.264 45.9149 43.1014C43.7844 40.9388 42.5857 38.0068 42.5815 34.9484V29.1174H49.6858V34.9484C49.6877 36.0952 50.1374 37.1946 50.9363 38.0055C51.7351 38.8164 52.8181 39.2728 53.9479 39.2748H67.2594C68.3892 39.2728 69.4722 38.8164 70.2711 38.0055C71.07 37.1946 71.5196 36.0952 71.5215 34.9484V26.9993L78.6258 24.1143V34.9484C78.621 38.0068 77.4217 40.9385 75.2908 43.1007C73.1598 45.2628 70.2712 46.479 67.2582 46.4825V46.485Z" fill="#CACACA"/>
<path d="M90.455 58.4099C92.6347 58.4099 94.4017 56.6162 94.4017 54.4037C94.4017 52.1911 92.6347 50.3975 90.455 50.3975C88.2753 50.3975 86.5083 52.1911 86.5083 54.4037C86.5083 56.6162 88.2753 58.4099 90.455 58.4099Z" fill="#CACACA"/>
<path d="M98.7494 58.4099C100.929 58.4099 102.696 56.6162 102.696 54.4037C102.696 52.1911 100.929 50.3975 98.7494 50.3975C96.5697 50.3975 94.8027 52.1911 94.8027 54.4037C94.8027 56.6162 96.5697 58.4099 98.7494 58.4099Z" fill="#CACACA"/>
<path d="M33.0927 58.4099C35.2724 58.4099 37.0394 56.6162 37.0394 54.4037C37.0394 52.1911 35.2724 50.3975 33.0927 50.3975C30.913 50.3975 29.146 52.1911 29.146 54.4037C29.146 56.6162 30.913 58.4099 33.0927 58.4099Z" fill="#CACACA"/>
<path d="M41.3861 58.4099C43.5658 58.4099 45.3328 56.6162 45.3328 54.4037C45.3328 52.1911 43.5658 50.3975 41.3861 50.3975C39.2064 50.3975 37.4395 52.1911 37.4395 54.4037C37.4395 56.6162 39.2064 58.4099 41.3861 58.4099Z" fill="#CACACA"/>
<path d="M56.4623 18.4372C58.642 18.4372 60.409 16.6436 60.409 14.431C60.409 12.2184 58.642 10.4248 56.4623 10.4248C54.2826 10.4248 52.5156 12.2184 52.5156 14.431C52.5156 16.6436 54.2826 18.4372 56.4623 18.4372Z" fill="#CACACA"/>
<path d="M64.6986 18.4372C66.8783 18.4372 68.6453 16.6436 68.6453 14.431C68.6453 12.2184 66.8783 10.4248 64.6986 10.4248C62.5189 10.4248 60.752 12.2184 60.752 14.431C60.752 16.6436 62.5189 18.4372 64.6986 18.4372Z" fill="#CACACA"/>
<path d="M155.106 18.4372C157.286 18.4372 159.053 16.6436 159.053 14.431C159.053 12.2184 157.286 10.4248 155.106 10.4248C152.926 10.4248 151.159 12.2184 151.159 14.431C151.159 16.6436 152.926 18.4372 155.106 18.4372Z" fill="#CACACA"/>
<path d="M12.8407 46.5803C9.64896 46.5629 6.59439 45.2611 4.34707 42.9604C2.09974 40.6598 0.843194 37.5483 0.853085 34.3084C0.864516 31.0684 2.14166 27.9653 4.4043 25.6799C6.66694 23.3946 9.73028 22.1136 12.9222 22.1182C16.1141 22.124 19.1734 23.4148 21.4288 25.7075C23.6843 28.0001 24.9517 31.1073 24.9529 34.3474V39.3871H38.37C39.4976 39.3861 40.5788 38.9311 41.3763 38.1218C42.1738 37.3125 42.6224 36.2151 42.6237 35.0705V31.8616H49.7112V35.0705C49.707 38.1224 48.5108 41.0482 46.3849 43.2062C44.2589 45.3643 41.3766 46.5785 38.37 46.5827H23.6194M12.9018 39.3859H17.8619V34.3462C17.8606 33.0112 17.3376 31.7314 16.4077 30.7874C15.4778 29.8435 14.2169 29.3126 12.9018 29.3113C12.1187 29.3077 11.3464 29.4964 10.6496 29.8591C9.88963 30.2552 9.24193 30.8418 8.76804 31.5634C8.44251 32.0545 8.20839 32.602 8.07728 33.1788L8.06769 33.2201C7.98123 33.5902 7.93855 33.9695 7.94057 34.3498C7.94016 34.8162 8.00353 35.2804 8.12885 35.729C8.26676 36.2318 8.48383 36.7102 8.77044 37.1436C9.2423 37.859 9.88567 38.4409 10.6401 38.8344C11.3394 39.2027 12.1164 39.3932 12.9042 39.3895L12.9018 39.3859Z" fill="#CACACA"/>
<path d="M12.8613 57.0621V49.8799C14.1864 49.879 15.4569 49.3442 16.3938 48.3931C17.3308 47.4421 17.8576 46.1524 17.8585 44.8073V36.0098H24.934V44.8073C24.9299 48.0562 23.6566 51.1708 21.3935 53.4682C19.1303 55.7655 16.0619 57.0579 12.8613 57.0621Z" fill="#CACACA"/>
<path d="M7.42773 49.8789H12.8627V57.0611H7.42773V49.8789Z" fill="#CACACA"/>
</g>
<defs>
<linearGradient id="paint0_linear_60_537" x1="240.696" y1="10.1005" x2="218.533" y2="58.0211" gradientUnits="userSpaceOnUse">
<stop stop-color="#E0AAFF"/>
<stop offset="1" stop-color="#9A24DD"/>
</linearGradient>
<linearGradient id="paint1_linear_60_537" x1="185.362" y1="41.6102" x2="217.721" y2="73.7182" gradientUnits="userSpaceOnUse">
<stop stop-color="#0E58EE"/>
<stop offset="1" stop-color="#6294F9"/>
</linearGradient>
<linearGradient id="paint2_linear_60_537" x1="232.852" y1="30.1143" x2="193.773" y2="-4.19157" gradientUnits="userSpaceOnUse">
<stop stop-color="#FF003B"/>
<stop offset="1" stop-color="#FFCC80"/>
</linearGradient>
<linearGradient id="paint3_linear_60_537" x1="197.499" y1="13.0472" x2="171.452" y2="44.7217" gradientUnits="userSpaceOnUse">
<stop stop-color="#FF4242"/>
<stop offset="1" stop-color="#FFF56D"/>
</linearGradient>
<clipPath id="clip0_60_537">
<rect width="239.847" height="65.3105" fill="white" transform="translate(0.848633 0.941406)"/>
</clipPath>
</defs>
</svg>
