<svg width="709" height="171" viewBox="0 0 709 171" fill="none" xmlns="http://www.w3.org/2000/svg">
<g clip-path="url(#clip0_289_70)">
<path fill-rule="evenodd" clip-rule="evenodd" d="M102.44 92.3099H138.06C139.048 92.3603 139.98 92.7884 140.662 93.5058C141.343 94.2232 141.724 95.1752 141.724 96.1649C141.724 97.1546 141.343 98.1066 140.662 98.824C139.98 99.5414 139.048 99.9695 138.06 100.02H102.44C101.452 99.9695 100.52 99.5414 99.8384 98.824C99.1566 98.1066 98.7764 97.1546 98.7764 96.1649C98.7764 95.1752 99.1566 94.2232 99.8384 93.5058C100.52 92.7884 101.452 92.3603 102.44 92.3099ZM98.23 22.2199H119.17C119.296 21.716 119.577 21.2645 119.974 20.929C120.37 20.5935 120.862 20.3909 121.38 20.3499H144.82C146.15 20.3499 147.24 21.7499 147.24 23.4699C147.24 25.1899 146.15 26.5899 144.82 26.5899H121.38C120.804 26.5314 120.264 26.2822 119.845 25.8819C119.427 25.4815 119.154 24.9529 119.07 24.3799H98.31C98.04 25.6599 97.23 26.5899 96.31 26.5899H75.6C74.43 26.5899 73.47 25.1799 73.47 23.4699C73.47 21.7599 74.47 20.3499 75.6 20.3499H96.27C97.15 20.3499 97.9 21.1199 98.23 22.2199ZM126.93 83.7099H147.77C148.07 82.5199 148.86 81.7099 149.77 81.7099H170.44C171.62 81.7099 172.58 83.1199 172.58 84.8399C172.58 86.5599 171.58 87.9599 170.44 87.9599H149.77C148.86 87.9599 148.07 87.0999 147.77 85.9599H126.93C126.815 86.4919 126.532 86.973 126.124 87.3329C125.715 87.6928 125.202 87.9125 124.66 87.9599H101.22C99.89 87.9599 98.8 86.5499 98.8 84.8399C98.8 83.1299 99.89 81.7099 101.22 81.7099H124.66C125.202 81.7573 125.715 81.977 126.124 82.3369C126.532 82.6968 126.815 83.1779 126.93 83.7099ZM27.93 71.5899H105.17C105.38 70.4799 105.86 69.6899 106.41 69.6899H119.49C120.04 69.6899 120.49 70.4799 120.73 71.5899H172.58C172.85 70.3999 173.58 69.5899 174.38 69.5899H192.95C194 69.5899 194.86 70.9899 194.86 72.7099C194.86 74.4299 194 75.8299 192.95 75.8299H174.34C173.52 75.8299 172.81 74.9799 172.54 73.8299H120.74C120.56 75.0899 120.05 76.0199 119.45 76.0199H106.37C105.77 76.0199 105.26 75.0899 105.08 73.8299H27.72C27.4 74.8299 26.72 75.4999 26.02 75.4999H10.47C8.8521 73.8843 7.3579 72.1494 6 70.3099C6.11755 70.0047 6.31693 69.7377 6.57625 69.5384C6.83557 69.339 7.14481 69.215 7.47 69.1799H26C26.93 69.1799 27.69 70.2099 27.89 71.5899H27.93ZM40.3 59.0999H113.9C114.05 57.9999 114.37 57.2199 114.75 57.2199H123.75C124.13 57.2199 124.45 57.9999 124.59 59.0999H190.9C191.17 57.9199 191.9 57.0999 192.69 57.0999H211.26C212.31 57.0999 213.18 58.5099 213.18 60.2199C213.18 61.9299 212.31 63.3399 211.26 63.3399H192.69C191.87 63.3399 191.17 62.4899 190.9 61.3399H124.61C124.49 62.6099 124.14 63.5399 123.73 63.5399H114.73C114.32 63.5399 113.97 62.6099 113.85 61.3399H40.3C40.03 62.5299 39.3 63.3399 38.51 63.3399H19.94C18.89 63.3399 18.02 61.9399 18.02 60.2199C18.02 58.4999 18.89 57.0999 19.94 57.0999H38.51C39.33 57.0599 40 57.9199 40.3 59.0999ZM55 46.7999H121.91C122.02 45.5099 122.38 44.5599 122.79 44.5599H131.79C132.21 44.5599 132.56 45.5099 132.68 46.7999H205.76C206.03 45.6099 206.76 44.7999 207.55 44.7999H226.12C227.18 44.7999 228.04 46.2099 228.04 47.9199C228.04 49.6299 227.19 50.9999 226.13 50.9999H207.56C206.74 50.9999 206.04 50.1499 205.77 48.9999H132.64C132.49 50.0899 132.17 50.8399 131.8 50.8399H122.8C122.43 50.8399 122.11 50.0899 121.96 48.9999H54.96C54.67 50.0999 53.96 50.8599 53.22 50.8599H34.62C33.62 50.8599 32.71 49.4599 32.71 47.7399C32.71 46.0199 33.57 44.6199 34.62 44.6199H53.2C54.06 44.5799 54.79 45.5199 55 46.7999ZM238.38 35.1299C238.48 35.2599 238.59 35.3799 238.69 35.4999L238.38 35.1299ZM123 0.149902C174.15 0.149902 218 13.7599 236.55 33.1499L236.27 32.8599H219.35C218.822 32.9169 218.326 33.1419 217.935 33.502C217.544 33.8621 217.28 34.3381 217.18 34.8599H141.49C141.35 33.4799 140.82 32.4399 140.18 32.4399H127.1C126.46 32.4399 125.93 33.4399 125.79 34.8599H73.42C73.22 33.4799 72.42 32.4499 71.55 32.4499H53C52 32.4499 51.09 33.8599 51.09 35.5699C51.09 37.2799 51.93 38.6999 53 38.6999H71.55C72.29 38.6999 72.93 38.0199 73.25 37.0299H125.91C126.14 38.0299 126.59 38.6899 127.1 38.6899H140.18C140.7 38.6899 141.18 38.0199 141.37 37.0299H217.18C217.28 37.5517 217.544 38.0277 217.935 38.3878C218.326 38.7479 218.822 38.9729 219.35 39.0299H241.35L241.29 38.9299C244.296 43.2965 245.936 48.4588 246 53.7599C246 83.3699 190.93 107.37 123 107.37C55.07 107.37 0 83.3699 0 53.7599C0 24.1499 55.07 0.149902 123 0.149902ZM108.68 7.1499H144.3C144.796 7.159 145.285 7.26589 145.74 7.46444C146.194 7.66299 146.605 7.9493 146.949 8.30695C147.293 8.66461 147.563 9.08659 147.743 9.5487C147.923 10.0108 148.011 10.504 148 10.9999C148.022 11.9974 147.648 12.963 146.96 13.6861C146.273 14.4092 145.327 14.8311 144.33 14.8599H108.69C107.69 14.8337 106.741 14.4132 106.05 13.6901C105.359 12.9671 104.981 12 105 10.9999C104.988 10.5035 105.074 10.0095 105.253 9.54635C105.432 9.08315 105.7 8.65976 106.043 8.30037C106.386 7.94098 106.796 7.65263 107.25 7.4518C107.704 7.25096 108.194 7.14158 108.69 7.1299L108.68 7.1499Z" fill="#184086"/>
<path d="M585.63 62.45L570.07 22.9C569.922 22.4972 569.653 22.1498 569.301 21.9043C568.949 21.6589 568.53 21.5274 568.1 21.5274C567.671 21.5274 567.252 21.6589 566.9 21.9043C566.547 22.1498 566.279 22.4972 566.13 22.9L550.13 62.45H585.63ZM438 89.57L493.46 89.75C503.84 89.75 502.39 86.38 502.39 78.04C502.39 68.8 498.29 67.91 483.39 63.11L462.61 56.41C443 50.06 436.18 41.12 436.18 26.92C436.18 10.51 447.08 1.21996 469.18 1.21996H515.9L515.72 17.16H469C459.64 17.16 454.51 18.24 453.86 26.33C453.66 28.91 453.54 34.16 458.41 37.14C462.91 39.89 472.32 41.7 483.6 46.14L495.6 50.86C505.54 55.57 519.6 57.12 520.05 78.19C520.75 109.02 497.75 106.13 482.28 106.06L438 105.87V89.57ZM391.3 89.94C412.41 89.94 415.3 68.36 415.3 52.38C415.3 36.18 410.74 16.69 389.84 16.69H370.67C351.2 16.69 347.79 37.85 347.79 52.38C347.79 66.75 350.2 89.94 369.93 89.94H391.3ZM395.91 106.15L366.34 106C339.67 105.9 329.45 75.78 329.45 54.26C329.45 33.03 338.2 -0.0400391 364.92 -0.0400391H396.34C423.11 -0.0400391 431.81 33.1 431.81 54.34C431.81 77.44 422.66 106.15 395.93 106.15H395.91ZM335.91 18.15H296V106.15H278.78V18.15H238.49V1.31996H336L335.91 18.15ZM708.66 84.8C708.66 97.3 707.99 107.38 695.52 107.62C686.06 107.8 679.31 95.41 670.71 81.41L636 25L635.61 106.22H618.46H602.82L591.82 78.31H543.78L532.51 106.22L513.73 105.85L554.84 9.70996C559.84 -1.90004 575.75 -2.41004 580.72 9.15996L618.46 97V22.58C618.46 9.07996 620.07 1.49996 632.36 1.49996C641.06 1.49996 644.62 7.22996 650.73 17.01L692.28 83.56L692.07 1.31996H708.66V84.8Z" fill="#184086"/>
<path d="M48.3702 155.94H45.9402C44.5391 155.994 43.1469 155.694 41.892 155.069C40.6372 154.443 39.5601 153.512 38.7602 152.36C38.1858 153.514 37.2808 154.471 36.1605 155.108C35.0403 155.746 33.7556 156.035 32.4702 155.94H7.84019C6.78302 155.986 5.72838 155.803 4.74817 155.405C3.76797 155.006 2.88525 154.401 2.16019 153.63C1.43256 152.843 0.867243 151.921 0.496602 150.915C0.12596 149.91 -0.0427285 148.841 0.000191423 147.77V145.84H4.00019V146.78C4.00019 149.71 5.38019 151.2 8.20019 151.2H32.0002C34.2602 151.2 35.3602 150.53 35.3602 149.26C35.256 148.334 34.9339 147.447 34.4202 146.67L32.2202 142.67L35.7502 140.35L38.1202 144.93C38.8654 146.493 39.8544 147.928 41.0502 149.18C41.7021 149.838 42.4823 150.355 43.3424 150.699C44.2026 151.043 45.1242 151.207 46.0502 151.18H48.3702V155.94ZM17.3702 142.86H13.1402V138.61H17.3902L17.3702 142.86ZM23.1702 142.86H18.9402V138.61H23.1902L23.1702 142.86ZM72.1702 152.8L70.0002 155.94H47.0002V151.2H65.0002L57.2102 144.2C56.7163 143.619 56.1038 143.151 55.4138 142.827C54.7239 142.502 53.9725 142.33 53.2102 142.32H50.0802V138.24H54.0802C55.8903 138.29 57.6107 139.039 58.8802 140.33L72.1702 152.8ZM54.6102 132.8H50.3002V128.55H54.6102V132.8ZM80.8302 155.93H76.3102V124.69H80.8302V155.93ZM107.83 149.36C107.887 150.338 107.699 151.314 107.284 152.201C106.868 153.088 106.238 153.858 105.45 154.44C103.797 155.512 101.848 156.034 99.8802 155.93H92.8802C91.293 155.989 89.7198 155.614 88.3297 154.846C86.9396 154.077 85.785 152.945 84.9902 151.57L87.8602 148.7C88.4554 149.535 89.2057 150.248 90.0702 150.8C90.819 151.113 91.6306 151.246 92.4402 151.19H100.17C102.44 151.19 103.54 150.58 103.54 149.36C103.255 148.366 102.702 147.47 101.94 146.77L92.8802 136.17L96.0302 133.17L105.03 143.88C106.84 146.06 107.78 147.88 107.78 149.37L107.83 149.36ZM140.73 155.93H138.3C137.156 155.96 136.019 155.726 134.979 155.248C133.939 154.769 133.022 154.059 132.3 153.17C132.017 154.482 131.473 155.723 130.7 156.82C127.827 161.007 121.644 165.59 112.15 170.57L110.15 166.81C118.98 162.12 124.78 157.87 127.43 154C128.152 153.118 128.559 152.021 128.588 150.882C128.617 149.743 128.266 148.627 127.59 147.71L124.89 142.71L128.59 140.39L131.73 146.46C133.39 149.55 135.65 151.16 138.53 151.16H140.73V155.93ZM150.84 149.14C150.877 150.771 150.327 152.36 149.29 153.62C148.598 154.402 147.736 155.016 146.771 155.417C145.806 155.817 144.763 155.992 143.72 155.93H139.3V151.2H143.61C145.61 151.2 146.61 150.42 146.61 148.99C146.581 148.244 146.353 147.519 145.95 146.89L143.52 142.47L147 140C148.38 142.54 149.26 144.14 149.59 144.86C150.281 146.192 150.689 147.653 150.79 149.15L150.84 149.14ZM144.71 164.88H140.46V160.63H144.71V164.88ZM147.58 170.34H143.27V166.1H147.58V170.34ZM150.51 164.88H146.2V160.63H150.51V164.88ZM188.27 149.42C188.27 155.88 181.604 162.32 168.27 168.74L166.17 165.15C169.255 163.711 172.241 162.071 175.11 160.24C179.47 157.37 182.4 154.66 183.78 152.07H180.52C179.513 152.129 178.503 151.982 177.554 151.638C176.605 151.294 175.736 150.761 175 150.07C174.328 149.324 173.81 148.452 173.479 147.504C173.148 146.557 173.009 145.552 173.07 144.55C173.069 143.72 173.239 142.898 173.572 142.137C173.904 141.377 174.39 140.693 175 140.13C175.597 139.541 176.304 139.077 177.082 138.764C177.86 138.452 178.692 138.297 179.53 138.31C180.555 138.321 181.567 138.538 182.506 138.946C183.446 139.355 184.294 139.948 185 140.69C187.17 142.75 188.22 145.67 188.22 149.43L188.27 149.42ZM184.08 147.42C184.04 146.734 183.862 146.063 183.558 145.446C183.254 144.829 182.83 144.28 182.31 143.83C181.563 143.102 180.589 142.654 179.55 142.56C178.851 142.558 178.172 142.791 177.62 143.22C177.322 143.384 177.072 143.624 176.897 143.915C176.721 144.207 176.626 144.54 176.62 144.88C176.62 146.59 177.67 147.42 179.77 147.42H184.08ZM240.83 155.97H237.41C238.327 157.013 238.854 158.342 238.9 159.73C238.9 162.05 237.08 164.31 233.44 166.57C229.21 169.165 224.322 170.487 219.36 170.38C214.61 170.38 210.97 169 208.48 166.19C206.304 163.685 205.16 160.446 205.28 157.13C205.184 154.764 205.482 152.399 206.16 150.13L209.7 151.13C209.302 152.646 209.077 154.203 209.03 155.77C208.966 157.892 209.545 159.983 210.69 161.77C212.46 164.42 215.44 165.77 219.58 165.77C222.18 165.762 224.764 165.371 227.25 164.61C229.76 163.96 232.074 162.707 233.99 160.96C234.332 160.643 234.549 160.213 234.6 159.75C234.6 159.09 234.04 158.37 232.94 157.75C231.23 156.64 227.47 155.75 221.79 154.99L222.89 151.29H240.83V155.97ZM260.94 128L246.42 132.25C245.26 132.58 244.65 133.02 244.65 133.63C244.738 134.389 244.983 135.121 245.37 135.78L249.95 144.56C251.39 147.38 252.95 149.31 254.53 150.25C255.862 150.929 257.347 151.253 258.84 151.19H260.17V155.93H258.17C256.723 155.893 255.305 155.516 254.03 154.83C252.732 154.217 251.61 153.284 250.77 152.12C249.61 154.66 247.07 155.93 243.15 155.93H239.34V151.2H243.34C245.83 151.2 247.1 150.48 247.1 149.04C247.018 147.895 246.676 146.783 246.1 145.79L241.35 136.62C240.839 135.668 240.555 134.61 240.52 133.53C240.52 131.21 241.96 129.61 244.77 128.78L259.46 124.42L260.94 128ZM270.27 149.14C270.307 150.771 269.757 152.36 268.72 153.62C268.028 154.402 267.166 155.016 266.201 155.417C265.236 155.817 264.193 155.992 263.15 155.93H258.79V151.2H263.09C265.09 151.2 266.09 150.42 266.09 148.99C266.061 148.244 265.833 147.519 265.43 146.89L262.95 142.47L266.48 139.99C267.86 142.53 268.74 144.18 269.07 144.85C269.762 146.185 270.171 147.649 270.27 149.15V149.14ZM267 136.34H262.69V132.09H267V136.34ZM286.32 155.94H282.57C277.164 155.94 274.457 152.683 274.45 146.17V124.69H278.98V145.84C278.888 147.175 279.154 148.511 279.75 149.71C280.161 150.24 280.702 150.656 281.32 150.917C281.938 151.178 282.613 151.275 283.28 151.2H286.28L286.32 155.94ZM296.48 149.15C296.516 150.779 295.97 152.367 294.94 153.63C294.245 154.412 293.382 155.026 292.415 155.426C291.449 155.826 290.404 156.002 289.36 155.94H285V151.2H289.3C291.3 151.2 292.3 150.42 292.3 148.99C292.271 148.244 292.043 147.519 291.64 146.89L289.21 142.47L292.69 139.99C294.07 142.53 294.96 144.13 295.29 144.85C295.963 146.19 296.354 147.653 296.44 149.15H296.48ZM293 164.94H288.75V160.69H293V164.94ZM347.24 138L345.52 141.42C344.223 140.746 342.791 140.37 341.33 140.32C338.84 140.32 336.33 141.75 333.93 144.63C333.575 145.007 333.36 145.494 333.32 146.01C333.32 146.78 333.82 147.22 334.76 147.33L342.21 147.83C345.08 148.05 346.52 149.59 346.52 152.41C346.52 154.84 344.75 157.41 341.16 160.2C337.211 163.299 332.32 164.954 327.3 164.89C323.16 164.89 319.85 163.89 317.37 161.89C314.66 159.74 313.28 156.59 313.28 152.56C313.24 150.03 313.691 147.517 314.61 145.16L317.92 146.27C317.386 147.857 317.07 149.508 316.98 151.18C316.98 157.31 320.51 160.35 327.64 160.35C330.218 160.325 332.773 159.869 335.2 159C337.996 158.149 340.448 156.429 342.2 154.09C342.476 153.738 342.646 153.315 342.69 152.87C342.69 152.38 342.25 152.1 341.42 152.1C338.874 152.136 336.329 152.006 333.8 151.71C330.71 151 329.17 149.39 329.17 146.91C329.17 144.59 330.55 142.22 333.36 139.73C336.17 137.24 338.61 136.14 340.93 136.14C343.172 136.119 345.368 136.767 347.24 138ZM363.52 155.94H359.77C354.364 155.94 351.657 152.683 351.65 146.17V124.69H356.18V145.84C356.093 147.175 356.358 148.51 356.95 149.71C357.364 150.24 357.907 150.655 358.526 150.915C359.146 151.176 359.822 151.274 360.49 151.2H363.49L363.52 155.94ZM388.87 152.8C388.872 153.565 388.716 154.323 388.412 155.025C388.107 155.727 387.661 156.359 387.1 156.88C386.546 157.423 385.889 157.849 385.168 158.134C384.446 158.419 383.676 158.557 382.9 158.54C380.805 158.383 378.763 157.801 376.9 156.83C375.334 156.161 373.834 155.348 372.42 154.4C370.125 155.471 367.613 155.998 365.08 155.94H362.2V151.2H364C366.87 151.2 368.47 151.14 368.86 151.09C367.891 150.088 367.133 148.901 366.629 147.601C366.126 146.301 365.888 144.913 365.93 143.52C365.967 141.93 366.53 140.397 367.53 139.16C368.71 137.554 370.473 136.477 372.44 136.16L369.91 133.73L373.16 131.02C376.009 133.518 378.701 136.189 381.22 139.02C386.33 144.85 388.87 149.43 388.87 152.8ZM377.77 143.63C377.76 143.112 377.63 142.603 377.391 142.143C377.152 141.683 376.809 141.285 376.39 140.98C375.559 140.367 374.553 140.037 373.52 140.04C372.5 140.025 371.513 140.401 370.76 141.09C370.371 141.391 370.055 141.775 369.835 142.215C369.615 142.655 369.497 143.138 369.49 143.63C369.515 144.862 369.865 146.065 370.504 147.119C371.143 148.173 372.049 149.039 373.13 149.63C376.22 148.38 377.77 146.39 377.77 143.63ZM385.11 152.19C385.11 151.42 384.56 150.19 383.4 148.55C382.57 147.308 381.629 146.143 380.59 145.07C380.649 146.631 380.137 148.159 379.15 149.37C378.459 150.402 377.534 151.255 376.45 151.86C379.15 153.63 381.3 154.51 382.96 154.51C384.4 154.51 385.11 153.74 385.11 152.19ZM412.78 141.19C413.455 142.486 413.799 143.929 413.78 145.39C413.749 147.589 413.051 149.726 411.78 151.52C408.914 155.82 402.73 160.42 393.23 165.32L391.23 161.57C400.01 156.93 405.75 152.57 408.45 148.7C409.157 147.778 409.562 146.66 409.61 145.5C409.584 144.412 409.281 143.349 408.73 142.41L405.97 137.49L409.67 135.23L412.78 141.19ZM429.89 155.93H426.14C420.734 155.93 418.027 152.673 418.02 146.16V124.69H422.55V145.84C422.458 147.175 422.724 148.511 423.32 149.71C423.731 150.24 424.272 150.656 424.89 150.917C425.508 151.178 426.183 151.275 426.85 151.2H429.85L429.89 155.93ZM450.1 128L435.58 132.25C434.42 132.58 433.81 133.02 433.81 133.63C433.898 134.389 434.143 135.121 434.53 135.78L439.11 144.56C440.55 147.38 442.11 149.31 443.7 150.25C445.028 150.93 446.51 151.254 448 151.19H449.33V155.93H447.33C445.883 155.893 444.465 155.516 443.19 154.83C441.892 154.217 440.77 153.284 439.93 152.12C438.77 154.66 436.23 155.93 432.31 155.93H428.5V151.2H432.5C434.99 151.2 436.26 150.48 436.26 149.04C436.167 147.89 435.807 146.777 435.21 145.79L430.46 136.62C429.949 135.668 429.665 134.61 429.63 133.53C429.63 131.21 431.07 129.61 433.88 128.78L448.57 124.42L450.1 128ZM474.61 152.79C474.614 153.555 474.46 154.312 474.157 155.014C473.854 155.716 473.409 156.348 472.85 156.87C472.296 157.412 471.639 157.839 470.918 158.124C470.196 158.409 469.426 158.547 468.65 158.53C466.555 158.372 464.514 157.79 462.65 156.82C461.088 156.149 459.592 155.336 458.18 154.39C455.885 155.461 453.373 155.988 450.84 155.93H448V151.2H449.76C452.63 151.2 454.24 151.14 454.62 151.09C453.654 150.086 452.898 148.899 452.397 147.599C451.896 146.299 451.659 144.913 451.7 143.52C451.737 141.93 452.3 140.397 453.3 139.16C454.477 137.552 456.242 136.474 458.21 136.16L455.67 133.73L458.93 131.02C461.779 133.518 464.471 136.189 466.99 139.02C472.07 144.85 474.61 149.43 474.61 152.8V152.79ZM463.52 143.62C463.51 143.102 463.38 142.593 463.141 142.133C462.902 141.673 462.559 141.275 462.14 140.97C461.309 140.358 460.303 140.028 459.27 140.03C458.246 140.013 457.255 140.388 456.5 141.08C456.113 141.382 455.798 141.767 455.578 142.206C455.358 142.646 455.239 143.129 455.23 143.62C455.236 144.85 455.582 146.054 456.23 147.1C456.85 148.185 457.77 149.067 458.88 149.64C462 148.38 463.52 146.39 463.52 143.63V143.62ZM470.86 152.18C470.86 151.41 470.31 150.18 469.15 148.54C468.317 147.298 467.373 146.133 466.33 145.06C466.394 146.62 465.885 148.149 464.9 149.36C464.203 150.389 463.275 151.242 462.19 151.85C464.9 153.62 467.05 154.5 468.71 154.5C470.14 154.51 470.86 153.74 470.86 152.19V152.18ZM483.39 155.93H478.87V124.69H483.39V155.93ZM507.3 141.2C507.996 142.49 508.358 143.934 508.35 145.4C508.319 147.599 507.622 149.736 506.35 151.53C503.45 155.843 497.25 160.443 487.75 165.33L485.75 161.58C494.53 156.94 500.27 152.58 502.98 148.71C503.683 147.786 504.087 146.67 504.14 145.51C504.11 144.421 503.804 143.358 503.25 142.42L500.49 137.5L504.19 135.24L507.3 141.2ZM544.46 148.55C544.508 149.71 544.24 150.86 543.685 151.88C543.13 152.9 542.31 153.75 541.31 154.34C539.404 155.45 537.225 156.004 535.02 155.94C528.5 155.94 525.24 152.683 525.24 146.17C525.193 144.201 525.732 142.262 526.79 140.6C527.268 139.75 527.966 139.044 528.81 138.556C529.655 138.069 530.615 137.818 531.59 137.83C534.08 137.83 536.78 138.94 539.71 141.09C542.86 143.47 544.46 146 544.46 148.55ZM540.59 148.38C540.59 147.11 539.38 145.67 537 144.07C534.8 142.58 533.08 141.87 531.92 141.87C531.431 141.896 530.961 142.067 530.569 142.36C530.178 142.654 529.882 143.058 529.72 143.52C529.316 144.423 529.108 145.401 529.11 146.39C529.065 147.093 529.199 147.796 529.497 148.434C529.796 149.072 530.251 149.624 530.82 150.04C531.984 150.867 533.394 151.276 534.82 151.2C538.667 151.2 540.59 150.26 540.59 148.38ZM581.28 155.94H579.85C578.335 155.988 576.83 155.678 575.458 155.035C574.085 154.392 572.883 153.434 571.95 152.24C571.13 154.67 568.75 155.94 564.89 155.94H556.89C555.262 155.951 553.654 155.574 552.2 154.84C550.69 154.201 549.457 153.045 548.72 151.58L551.37 148.77C552.75 150.37 554.19 151.2 555.68 151.2H565C567.26 151.2 568.37 150.53 568.37 149.2C568.289 148.502 568.083 147.824 567.76 147.2L561.57 135.27L565.16 132.95L571.35 145.1C572.14 146.842 573.308 148.387 574.77 149.62C576.346 150.74 578.248 151.306 580.18 151.23H581.28V155.94ZM595.92 155.94H594.48C591.67 155.94 589.68 154.94 588.48 152.85C587.929 153.83 587.117 154.639 586.133 155.184C585.15 155.73 584.034 155.991 582.91 155.94H579.91V151.14H581.78C583.44 151.14 584.54 150.81 584.99 150.14C585.362 149.078 585.512 147.952 585.43 146.83V141.14H589.57V145.56C589.57 147.88 590.01 149.42 590.84 150.2C591.67 150.98 592.84 151.2 594.7 151.2H595.92V155.94ZM589.73 136.34H585.43V132.09H589.73V136.34ZM610.44 155.94H609C606.19 155.94 604.2 154.94 603 152.85C602.449 153.83 601.637 154.639 600.653 155.184C599.67 155.73 598.554 155.991 597.43 155.94H594.43V151.14H596.3C597.96 151.14 599.06 150.81 599.51 150.14C599.882 149.078 600.032 147.952 599.95 146.83V141.14H604.09V145.56C604.09 147.88 604.53 149.42 605.36 150.2C606.19 150.98 607.36 151.2 609.22 151.2H610.44V155.94ZM604.25 136.34H600V132.09H604.3L604.25 136.34ZM630.59 128L616.07 132.25C614.86 132.58 614.25 133.08 614.25 133.63C614.363 134.39 614.625 135.121 615.02 135.78L619.55 144.62C620.378 146.014 620.868 147.582 620.98 149.2C620.98 153.67 618.28 155.93 612.81 155.93H609V151.2H613C615.49 151.2 616.76 150.48 616.76 149.04C616.682 147.894 616.34 146.782 615.76 145.79L611 136.62C610.491 135.699 610.206 134.671 610.17 133.62C610.17 131.25 611.61 129.62 614.42 128.82L629.11 124.46L630.59 128ZM656.21 155.93H654.21C652.531 156.022 650.86 155.642 649.385 154.832C647.911 154.023 646.694 152.816 645.87 151.35C643.73 151.936 641.518 152.215 639.3 152.18C633.51 152.18 630.58 149.81 630.58 145.06C630.58 143.35 631.91 141.52 634.45 139.65C634.94 139.32 636.65 138.27 639.75 136.5L638.75 134.18L642.12 131.86L646.81 144.56C647.317 146.253 648.123 147.841 649.19 149.25C649.884 149.916 650.707 150.432 651.608 150.765C652.51 151.099 653.47 151.244 654.43 151.19H656.2L656.21 155.93ZM644.06 147.6L641.06 140.14C639.408 140.918 637.82 141.824 636.31 142.85C635.04 143.85 634.38 144.85 634.38 145.85C634.38 147.23 636.09 147.94 639.57 147.94C641.074 147.985 642.579 147.874 644.06 147.61V147.6ZM666.26 149.14C666.294 150.065 666.132 150.986 665.785 151.844C665.437 152.702 664.913 153.477 664.245 154.118C663.578 154.759 662.783 155.252 661.911 155.564C661.04 155.876 660.113 156.001 659.19 155.93H654.83V151.2H659.08C661.08 151.2 662.08 150.42 662.08 148.99C662.047 148.251 661.838 147.531 661.47 146.89L659 142.47L662.5 140C663.88 142.54 664.77 144.14 665.1 144.86C665.757 146.203 666.15 147.659 666.26 149.15V149.14ZM660.41 164.93H656.15V160.68H660.41V164.93ZM666.26 164.93H662V160.68H666.25L666.26 164.93ZM674.98 155.93H670.45V124.69H675L674.98 155.93ZM698.89 141.19C699.586 142.48 699.948 143.924 699.94 145.39C699.894 147.594 699.179 149.731 697.89 151.52C695.024 155.82 688.84 160.42 679.34 165.32L677.34 161.57C686.12 156.93 691.86 152.57 694.57 148.7C695.273 147.776 695.677 146.66 695.73 145.5C695.7 144.411 695.394 143.348 694.84 142.41L692 137.5L695.7 135.24L698.89 141.19ZM708.66 155.93H704.13V124.69H708.66V155.93Z" fill="#184086"/>
</g>
<defs>
<clipPath id="clip0_289_70">
<rect width="708.66" height="170.58" fill="white"/>
</clipPath>
</defs>
</svg>
